<?xml version="1.0" standalone="no"?>
<!DOCTYPE svg PUBLIC "-//W3C//DTD SVG 20010904//EN"
 "http://www.w3.org/TR/2001/REC-SVG-20010904/DTD/svg10.dtd">
<svg version="1.0" xmlns="http://www.w3.org/2000/svg"
 width="108.000000pt" height="65.000000pt" viewBox="0 0 108.000000 65.000000"
 preserveAspectRatio="xMidYMid meet">

<g transform="translate(0.000000,65.000000) scale(0.100000,-0.100000)"
fill="#000000" stroke="none">
<path d="M874 501 c-87 -21 -182 -90 -231 -166 -15 -25 -30 -45 -33 -45 -3 0
-16 20 -30 45 -22 39 -29 45 -58 45 -24 0 -31 -3 -26 -12 5 -7 27 -43 51 -80
40 -61 43 -72 43 -132 l0 -66 30 0 30 0 0 65 c0 110 68 212 178 266 38 20 63
24 135 24 84 0 88 1 94 24 3 14 1 26 -8 32 -17 10 -131 10 -175 0z"/>
<path d="M0 235 l0 -145 30 0 c30 0 30 1 30 55 l0 55 39 0 c50 0 99 18 111 40
19 35 12 95 -13 118 -20 19 -35 22 -110 22 l-87 0 0 -145z m151 86 c21 -16 22
-22 11 -45 -10 -22 -18 -26 -57 -26 l-45 0 0 45 c0 44 0 45 34 45 19 0 44 -8
57 -19z"/>
<path d="M278 235 l-55 -145 28 0 c23 0 31 7 43 35 15 34 16 35 75 35 59 0 60
0 71 -35 10 -30 16 -35 42 -35 20 0 28 4 25 13 -3 6 -29 72 -58 145 -52 130
-53 132 -84 132 -31 0 -32 -1 -87 -145z m110 30 c5 -16 13 -38 17 -47 6 -16 1
-18 -35 -18 -41 0 -42 1 -37 28 10 48 27 86 36 76 5 -5 13 -22 19 -39z"/>
<path d="M865 356 c-27 -13 -64 -39 -82 -57 -34 -36 -70 -109 -54 -109 5 0 16
-3 24 -6 14 -5 60 57 60 84 0 6 2 10 5 7 3 -2 17 4 31 14 38 27 97 44 137 39
22 -3 34 0 34 8 0 7 3 19 6 28 10 27 -99 21 -161 -8z"/>
<path d="M902 228 c-32 -32 0 -78 42 -62 30 11 14 74 -19 74 -6 0 -16 -5 -23
-12z m15 -43 c0 -8 -4 -12 -9 -9 -5 3 -6 10 -3 15 9 13 12 11 12 -6z"/>
<path d="M790 70 c0 -40 4 -70 10 -70 6 0 10 15 10 34 0 32 3 35 33 39 l32 4
-32 1 c-28 2 -33 6 -33 26 0 21 5 25 38 29 34 3 33 4 -10 5 l-48 2 0 -70z"/>
<path d="M970 71 c0 -41 4 -71 10 -71 6 0 10 13 10 30 0 26 4 30 28 30 40 0
54 13 50 46 -3 27 -6 29 -50 32 l-48 3 0 -70z m78 47 c15 -20 0 -43 -30 -46
-25 -3 -28 0 -28 27 0 26 4 31 24 31 13 0 28 -6 34 -12z"/>
<path d="M921 63 c1 -78 6 -74 12 10 2 31 0 57 -5 57 -4 0 -8 -30 -7 -67z"/>
</g>
</svg>
